<svg xmlns="http://www.w3.org/2000/svg" viewBox="0 0 1112 288.18"><defs><style>.cls-1,.cls-2{fill:#fff;}.cls-2{font-size:67px;font-family:BodoniMT, Bodoni MT;}.cls-3{letter-spacing:-0.01em;}.cls-4{letter-spacing:-0.05em;}.cls-5{letter-spacing:-0.04em;}</style></defs><g id="Ebene_2" data-name="Ebene 2"><g id="Layer_1" data-name="Layer 1"><path class="cls-1" d="M74.77,144.49V9h-23V3.39H124V9H100.89V144.49H124v5.58H51.73v-5.58Zm65-141.1h55.52V9H172.76L124,58.85l71.21,85.64h14.38v5.58H137.32v-5.58h25.34L103.41,72.08,164.75,9h-25Z"/><path class="cls-1" d="M206.47,106.86a44.25,44.25,0,0,1,13.06-32.21q13-13.29,32.37-13.29,18.87,0,32,12.75T297,106a45.2,45.2,0,0,1-13.6,33.2q-13.61,13.6-32.15,13.61-18.23,0-31.49-13.29T206.47,106.86Zm65.83,0q0-20.11-1.37-26.57a17,17,0,0,0-6.14-10.23c-3.18-2.52-7.56-3.78-13.11-3.78q-7.91,0-13,3.89a16.33,16.33,0,0,0-6.31,10.33q-1.2,6.47-1.2,26.58t1.48,26.8a17,17,0,0,0,6.47,10.28q5,3.72,12.57,3.72a20.94,20.94,0,0,0,12.78-3.77,16.69,16.69,0,0,0,6.47-10.5Q272.31,126.88,272.3,106.86Z"/><path class="cls-1" d="M399.61,1.75l.66,38.06h-5.16q-11-34.23-38.73-34.23-15.36,0-23.87,8.48T324,31.61q0,8.43,7.08,14.33t25.84,9.13Q375.68,58.3,385.51,63t16.57,15.48a45.91,45.91,0,0,1,6.75,24.82q0,21.56-14.1,35.88t-35,14.33q-17,0-33.91-12.58l-10.31,9.19h-3.84v-41h4.72q6.46,19.36,18.1,29.1T360,147.88a39.83,39.83,0,0,0,25.18-9q11.46-9,11.47-22.81a26.5,26.5,0,0,0-8-19.52q-7.95-7.94-25.78-10.94t-27.38-7q-9.54-4-16.35-13.89a37.83,37.83,0,0,1-6.8-21.93q0-16.64,11.85-29.7T356.38,0q17,0,31.71,10.72a38.91,38.91,0,0,0,7-9Z"/><path class="cls-1" d="M421.8,106.86a44.25,44.25,0,0,1,13.06-32.21q13-13.29,32.37-13.29,18.87,0,32,12.75T512.32,106a45.2,45.2,0,0,1-13.6,33.2q-13.61,13.6-32.15,13.61-18.22,0-31.49-13.29T421.8,106.86Zm65.83,0q0-20.11-1.37-26.57a17,17,0,0,0-6.14-10.23c-3.18-2.52-7.56-3.78-13.11-3.78q-7.9,0-13,3.89a16.33,16.33,0,0,0-6.31,10.33q-1.2,6.47-1.2,26.58t1.48,26.8a17,17,0,0,0,6.47,10.28q5,3.72,12.57,3.72a21,21,0,0,0,12.78-3.77,16.69,16.69,0,0,0,6.47-10.5Q487.64,126.88,487.63,106.86Z"/><path class="cls-1" d="M534,144.49V9H518.27V3.39h15q15.13,0,22.05-1.64V144.49h15.47v5.58H518.27v-5.58Z"/><path class="cls-1" d="M667.3,64.1v80.39h14.82v5.58H667.3q-17.12,0-21.61,1.31V131h-.44q-9.88,20.34-31,20.34-12.18,0-19.59-6.4t-7.41-27V69.68H571.29V64.1H608.6v57.75q0,13.56,1.65,18.76t8.44,5.19q10.09,0,18.66-10.77t8.56-32.43V69.68H628.35V64.1Z"/><path class="cls-1" d="M726.14,39.16V64.1h26v5.58h-26v54.14q0,11.93,1.59,16.3t8.51,4.37a17.16,17.16,0,0,0,10.15-3.5q4.88-3.5,7.4-10.83h4.72q-5.06,21.22-30.61,21.22-10.75,0-15.8-3.88a15.77,15.77,0,0,1-6.2-9.57,81,81,0,0,1-1.16-15.42V69.68H685.21V64.1h19.53V41A122.76,122.76,0,0,0,726.14,39.16Z"/><path class="cls-1" d="M798.48,62.46v82h14.37v5.58h-51v-5.58h15.36V69.68H761.83V64.1h15.58A129.1,129.1,0,0,0,798.48,62.46ZM776.42,20.34A11.27,11.27,0,0,1,780,12a11.88,11.88,0,0,1,16.79,0,11.2,11.2,0,0,1,3.56,8.36,11.38,11.38,0,0,1-3.51,8.54,12.15,12.15,0,0,1-16.9-.06A11.42,11.42,0,0,1,776.42,20.34Z"/><path class="cls-1" d="M818.25,106.86a44.25,44.25,0,0,1,13.06-32.21q13.07-13.29,32.37-13.29,18.87,0,32,12.75T908.78,106a45.21,45.21,0,0,1-13.61,33.2q-13.6,13.6-32.15,13.61-18.21,0-31.49-13.29T818.25,106.86Zm65.84,0q0-20.11-1.37-26.57a17.11,17.11,0,0,0-6.15-10.23q-4.77-3.78-13.11-3.78-7.9,0-13,3.89a16.29,16.29,0,0,0-6.31,10.33q-1.21,6.47-1.21,26.58t1.48,26.8a17,17,0,0,0,6.48,10.28q5,3.72,12.56,3.72a20.94,20.94,0,0,0,12.78-3.77,16.74,16.74,0,0,0,6.48-10.5Q884.09,126.88,884.09,106.86Z"/><path class="cls-1" d="M932.5,144.49V69.68H916.92V64.1h10a201.18,201.18,0,0,0,26.88-1.64V83.79h.44q11.31-22.43,31.93-22.43,9.66,0,15.86,4.92a25,25,0,0,1,8.45,11.6q2.25,6.68,2.25,20.67v45.94h17.12v5.58H976.72v-5.58h14.59V89.8q0-12.57-1.59-17.39t-8.28-4.81q-10.65,0-19.15,10.88t-8.51,29.26v36.75h14.38v5.58H916.92v-5.58Z"/><path class="cls-1" d="M1092.29,63.11v24.5h-4.5q-5.05-21.33-24.58-21.33-8.46,0-14.1,4.43t-5.65,10.12a8.78,8.78,0,0,0,4,7.6q4,2.79,18.93,4.76,32.8,4.05,32.81,29.75,0,12.81-8.51,21.33a28.6,28.6,0,0,1-21.12,8.53q-12.4,0-24-10.17l-7.68,6.56H1034V116.93h3.84q9.44,30.94,31.71,30.95a24.39,24.39,0,0,0,15.36-5.36q6.91-5.36,6.92-12.58,0-6-4.12-9.07t-22.22-5.69q-30.83-4.49-30.83-27.35A24.58,24.58,0,0,1,1043,69a31,31,0,0,1,41.43.72,30.76,30.76,0,0,0,4.49-6.57Z"/><rect class="cls-1" x="32.81" y="3.39" width="4.32" height="146.68"/><rect class="cls-1" x="16.12" y="28.17" width="37.7" height="97.12"/><path class="cls-1" d="M56,127.44H14V26H56Zm-37.7-4.3H51.66V30.32H18.28Z"/><text class="cls-2" transform="translate(8.66 220.54)">Digitaliz<tspan class="cls-3" x="242.94" y="0">a</tspan><tspan x="275.13" y="0">tion &amp; Inn</tspan><tspan class="cls-4" x="569.07" y="0">o</tspan><tspan class="cls-5" x="598.78" y="0">v</tspan><tspan class="cls-3" x="632.61" y="0">a</tspan><tspan x="664.8" y="0">tion Consulting</tspan></text></g></g></svg>