<svg xmlns="http://www.w3.org/2000/svg" viewBox="0 0 1112 284.22"><defs><style>.cls-1,.cls-2{fill:#231f20;}.cls-2{font-size:67px;font-family:BodoniMT, Bodoni MT;}.cls-3{letter-spacing:-0.01em;}.cls-4{letter-spacing:-0.05em;}.cls-5{letter-spacing:-0.04em;}</style></defs><g id="Ebene_2" data-name="Ebene 2"><g id="Layer_1" data-name="Layer 1"><path class="cls-1" d="M75.71,144.49V9h-23V3.39h72.08V9H101.74V144.49h23.08v5.58H52.74v-5.58ZM140.46,3.39h55.35V9H173.39L124.82,58.85l71,85.64h14.33v5.58H138.06v-5.58h25.26L104.26,72.08,165.4,9H140.46Z"/><path class="cls-1" d="M207,106.86a44.33,44.33,0,0,1,13-32.21q13-13.29,32.27-13.29,18.81,0,31.88,12.75T297.23,106a45.28,45.28,0,0,1-13.56,33.2q-13.56,13.6-32.05,13.61-18.17,0-31.39-13.29T207,106.86Zm65.63,0q0-20.11-1.37-26.57a17.07,17.07,0,0,0-6.12-10.23q-4.75-3.78-13.07-3.78-7.87,0-13,3.89a16.3,16.3,0,0,0-6.29,10.33Q231.6,87,231.6,107.08t1.48,26.8a16.93,16.93,0,0,0,6.45,10.28q5,3.72,12.53,3.72a20.83,20.83,0,0,0,12.74-3.77,16.71,16.71,0,0,0,6.45-10.5Q272.62,126.88,272.62,106.86Z"/><path class="cls-1" d="M399.53,1.75l.65,38.06H395Q384.11,5.58,356.43,5.58q-15.31,0-23.79,8.48t-8.48,17.55q0,8.43,7.06,14.33T357,55.07q18.7,3.23,28.49,7.88T402,78.43a46.07,46.07,0,0,1,6.72,24.82q0,21.56-14,35.88t-34.84,14.33q-16.95,0-33.8-12.58l-10.28,9.19h-3.83v-41h4.7q6.47,19.36,18.05,29.1T360,147.88a39.64,39.64,0,0,0,25.1-9q11.43-9,11.43-22.81a26.52,26.52,0,0,0-7.93-19.52q-7.93-7.94-25.7-10.94t-27.29-7q-9.52-4-16.3-13.89a38,38,0,0,1-6.78-21.93q0-16.64,11.81-29.7T356.43,0Q373.38,0,388,10.72a38.84,38.84,0,0,0,7-9Z"/><path class="cls-1" d="M421.65,106.86a44.33,44.33,0,0,1,13-32.21q13-13.29,32.27-13.29,18.81,0,31.88,12.75T511.88,106a45.28,45.28,0,0,1-13.56,33.2q-13.56,13.6-32.05,13.61-18.15,0-31.39-13.29T421.65,106.86Zm65.62,0q0-20.11-1.36-26.57a17.13,17.13,0,0,0-6.13-10.23q-4.75-3.78-13.07-3.78-7.87,0-13,3.89a16.3,16.3,0,0,0-6.29,10.33q-1.2,6.47-1.2,26.58t1.47,26.8a17,17,0,0,0,6.46,10.28q5,3.72,12.52,3.72a20.83,20.83,0,0,0,12.74-3.77,16.76,16.76,0,0,0,6.46-10.5Q487.28,126.88,487.27,106.86Z"/><path class="cls-1" d="M533.46,144.49V9H517.82V3.39h15q15.09,0,22-1.64V144.49h15.42v5.58H517.82v-5.58Z"/><path class="cls-1" d="M666.38,64.1v80.39h14.76v5.58H666.38q-17.07,0-21.55,1.31V131h-.44q-9.84,20.34-30.95,20.34-12.15,0-19.53-6.4t-7.38-27V69.68H570.67V64.1h37.19v57.75q0,13.56,1.64,18.76t8.42,5.19q10.07,0,18.6-10.77t8.53-32.43V69.68h-17.5V64.1Z"/><path class="cls-1" d="M725,39.16V64.1H751v5.58H725v54.14q0,11.93,1.59,16.3t8.47,4.37a17.05,17.05,0,0,0,10.12-3.5q4.86-3.5,7.38-10.83h4.71q-5,21.22-30.52,21.22-10.72,0-15.75-3.88a15.82,15.82,0,0,1-6.18-9.57,81.12,81.12,0,0,1-1.15-15.42V69.68H684.23V64.1H703.7V41A122,122,0,0,0,725,39.16Z"/><path class="cls-1" d="M797.14,62.46v82h14.33v5.58H760.61v-5.58h15.31V69.68H760.61V64.1h15.53A128.14,128.14,0,0,0,797.14,62.46Zm-22-42.12A11.29,11.29,0,0,1,778.71,12a11.81,11.81,0,0,1,16.73,0A11.2,11.2,0,0,1,799,20.34a11.41,11.41,0,0,1-3.5,8.54,12.09,12.09,0,0,1-16.85-.06A11.45,11.45,0,0,1,775.15,20.34Z"/><path class="cls-1" d="M816.85,106.86a44.33,44.33,0,0,1,13-32.21q13-13.29,32.27-13.29Q881,61.36,894,74.11T907.09,106a45.28,45.28,0,0,1-13.56,33.2q-13.56,13.6-32,13.61-18.15,0-31.39-13.29T816.85,106.86Zm65.63,0q0-20.11-1.37-26.57A17.07,17.07,0,0,0,875,70.06q-4.75-3.78-13.07-3.78-7.87,0-13,3.89a16.3,16.3,0,0,0-6.29,10.33q-1.21,6.47-1.21,26.58t1.48,26.8a16.93,16.93,0,0,0,6.45,10.28q5,3.72,12.53,3.72a20.83,20.83,0,0,0,12.74-3.77,16.71,16.71,0,0,0,6.45-10.5Q882.49,126.88,882.48,106.86Z"/><path class="cls-1" d="M930.74,144.49V69.68H915.21V64.1h9.95A200.15,200.15,0,0,0,952,62.46V83.79h.44q11.26-22.43,31.83-22.43,9.62,0,15.8,4.92a25,25,0,0,1,8.43,11.6q2.24,6.68,2.24,20.67v45.94h17.06v5.58H974.82v-5.58h14.55V89.8q0-12.57-1.59-17.39t-8.26-4.81q-10.6,0-19.08,10.88T952,107.74v36.75h14.33v5.58H915.21v-5.58Z"/><path class="cls-1" d="M1090,63.11v24.5h-4.48q-5-21.33-24.5-21.33-8.43,0-14.06,4.43t-5.63,10.12a8.79,8.79,0,0,0,4,7.6q4,2.79,18.87,4.76,32.7,4.05,32.7,29.75,0,12.81-8.47,21.33a28.48,28.48,0,0,1-21.06,8.53q-12.36,0-24-10.17l-7.66,6.56h-3.83V116.93h3.83q9.4,30.94,31.61,30.95a24.32,24.32,0,0,0,15.32-5.36q6.88-5.36,6.89-12.58,0-6-4.11-9.07t-22.14-5.69q-30.75-4.49-30.74-27.35A24.6,24.6,0,0,1,1040.86,69a28.73,28.73,0,0,1,20.18-7.6,29.05,29.05,0,0,1,21.11,8.32,30.77,30.77,0,0,0,4.48-6.57Z"/><rect class="cls-1" x="33.88" y="3.39" width="4.31" height="146.68"/><rect class="cls-1" x="17.24" y="28.17" width="37.59" height="97.12"/><path class="cls-1" d="M57,127.44H15.09V26H57Zm-37.59-4.3H52.67V30.32H19.39Z"/><text class="cls-2" transform="translate(8.66 216.59)">Digitaliz<tspan class="cls-3" x="242.94" y="0">a</tspan><tspan x="275.13" y="0">tion &amp; Inn</tspan><tspan class="cls-4" x="569.07" y="0">o</tspan><tspan class="cls-5" x="598.78" y="0">v</tspan><tspan class="cls-3" x="632.61" y="0">a</tspan><tspan x="664.8" y="0">tion Consulting</tspan></text></g></g></svg>