<svg xmlns="http://www.w3.org/2000/svg" width="25.7" height="28.259" viewBox="0 0 25.7 28.259">
  <g id="search" transform="translate(-0.196)">
    <path id="Path_1" data-name="Path 1" d="M10.787,23.274C4.947,23.274.2,18.053.2,11.637S4.947,0,10.787,0,21.378,5.22,21.378,11.637,16.627,23.274,10.787,23.274Zm0-21.068C6.054,2.206,2.2,6.437,2.2,11.637s3.85,9.431,8.583,9.431,8.583-4.231,8.583-9.431-3.85-9.431-8.583-9.431ZM25.6,27.936a1.182,1.182,0,0,0,0-1.56L21.109,21.44a.941.941,0,0,0-1.42,0,1.182,1.182,0,0,0,0,1.56l4.492,4.936a.942.942,0,0,0,1.42,0Z" fill="#fff"/>
  </g>
</svg>
